<svg xmlns="http://www.w3.org/2000/svg" xmlns:xlink="http://www.w3.org/1999/xlink" viewBox="0 0 85.29 85.29"><defs><style>.cls-1{fill:url(#Degradado_sin_nombre_9);}.cls-2{fill:#18499a;}.cls-3{fill:none;}</style><linearGradient id="Degradado_sin_nombre_9" x1="42.51" y1="79.4" x2="42.51" y2="4.25" gradientUnits="userSpaceOnUse"><stop offset="0" stop-color="#c9961a"/><stop offset="0.31" stop-color="#f0bf00"/><stop offset="0.63" stop-color="#f2dc8e"/><stop offset="0.66" stop-color="#f3df94"/><stop offset="0.89" stop-color="#fcf2c1"/><stop offset="1" stop-color="#fffad2"/></linearGradient></defs><g id="Capa_2" data-name="Capa 2"><g id="Capa_1-2" data-name="Capa 1"><path class="cls-1" d="M64.77,25.48a23.51,23.51,0,0,1,1.11,4.41,19.17,19.17,0,0,1-.52,9,13.43,13.43,0,0,0-.8-2.88c0-.14-.11-.29-.17-.43C62.55,31.14,59,29,56.11,28.69l-.35,0C49.35,27.84,44.24,23,44.24,16.09A12.62,12.62,0,0,1,52,4.27c-5.25-.43-13.63,4.84-19.93,12.85-5.49,7-7.8,14-6.31,17.84a4.09,4.09,0,0,0,1.72,2.46c-4.57-.32-8.27-5-8.78-11C10.6,32,5.44,40.21,5.44,49.44c0,16.55,16.59,30,37.07,30S79.57,66,79.57,49.44C79.57,39.64,73.76,31,64.77,25.48Z"/><ellipse class="cls-2" cx="30.89" cy="50.61" rx="9.76" ry="3.92" transform="translate(-1.36 0.86) rotate(-1.56)"/><path class="cls-2" d="M30.17,55.74C23,55.74,19.59,53.16,20,50.61s4.48-5.13,11.66-5.13,10.58,2.58,10.22,5.13S37.35,55.74,30.17,55.74Zm1.1-7.85c-5.29,0-8.78,1.76-8.91,2.72s2.85,2.72,8.15,2.72,8.78-1.76,8.91-2.72S36.57,47.89,31.27,47.89Z"/><path class="cls-2" d="M40.46,51.81a1,1,0,0,1-1-1.2l5.26-37.38A1.42,1.42,0,0,1,46.05,12a1,1,0,0,1,1,1.2L41.83,50.61A1.42,1.42,0,0,1,40.46,51.81Z"/><ellipse class="cls-2" cx="38.83" cy="63.41" rx="9.76" ry="3.92" transform="translate(-1.71 1.08) rotate(-1.56)"/><path class="cls-2" d="M38.11,68.54c-7.18,0-10.58-2.58-10.22-5.13s4.48-5.13,11.66-5.13,10.58,2.58,10.22,5.13S45.29,68.54,38.11,68.54Zm1.1-7.85c-5.29,0-8.78,1.76-8.92,2.72s2.86,2.72,8.16,2.72,8.78-1.76,8.91-2.72S44.51,60.69,39.21,60.69Z"/><polygon class="cls-2" points="49.77 63.41 47.36 63.41 52.62 26.03 55.02 26.03 49.77 63.41"/><path class="cls-2" d="M67.25,34.64a1.07,1.07,0,0,1-.53-.13l-13.6-7.4a1.12,1.12,0,0,1-.3-1.62A1.33,1.33,0,0,1,54.51,25l13.6,7.4a1.11,1.11,0,0,1,.3,1.62A1.4,1.4,0,0,1,67.25,34.64Z"/><path class="cls-2" d="M66,43.71a1.06,1.06,0,0,1-.52-.13l-13.6-7.4a1.11,1.11,0,0,1-.3-1.62A1.33,1.33,0,0,1,53.24,34l13.6,7.41a1.1,1.1,0,0,1,.3,1.61A1.42,1.42,0,0,1,66,43.71Z"/><circle class="cls-3" cx="42.64" cy="42.64" r="42.64"/></g></g></svg>