<?xml version="1.0" standalone="no"?>
<!DOCTYPE svg PUBLIC "-//W3C//DTD SVG 20010904//EN"
 "http://www.w3.org/TR/2001/REC-SVG-20010904/DTD/svg10.dtd">
<svg version="1.0" xmlns="http://www.w3.org/2000/svg"
 width="640.000000pt" height="640.000000pt" viewBox="0 0 640.000000 640.000000"
 preserveAspectRatio="xMidYMid meet">
<metadata>
Created by potrace 1.14, written by Peter Selinger 2001-2017
</metadata>
<g transform="translate(0.000000,640.000000) scale(0.100000,-0.100000)"
fill="#000000" stroke="none">
<path d="M3740 6378 c-41 -10 -82 -21 -90 -25 -8 -3 -20 -7 -26 -8 -46 -10
-220 -96 -329 -163 -100 -61 -106 -66 -124 -80 -9 -7 -47 -37 -86 -65 -38 -29
-72 -54 -75 -57 -3 -3 -32 -27 -65 -54 -93 -78 -333 -321 -419 -426 -42 -52
-85 -104 -95 -115 -19 -22 -150 -206 -192 -270 -94 -142 -270 -476 -284 -540
-1 -5 -5 -17 -8 -25 -68 -159 -110 -359 -111 -525 0 -113 3 -146 18 -200 23
-82 30 -102 38 -112 6 -7 7 -13 4 -13 -10 0 28 -51 66 -89 l33 -33 -50 7
c-239 34 -480 282 -576 593 -12 37 -24 74 -27 82 -3 8 -7 24 -9 35 -2 11 -10
53 -17 94 -8 41 -13 83 -11 93 5 26 -14 22 -54 -10 -221 -177 -365 -317 -490
-477 -34 -44 -70 -89 -79 -100 -41 -50 -171 -271 -217 -370 -47 -99 -107 -246
-106 -260 0 -2 -6 -20 -15 -40 -8 -19 -11 -35 -8 -35 4 0 1 -6 -5 -13 -6 -8
-13 -31 -17 -53 -3 -21 -8 -42 -11 -47 -2 -4 -7 -20 -9 -35 -10 -55 -12 -67
-18 -92 -23 -101 -30 -200 -30 -395 0 -202 8 -308 35 -426 6 -26 12 -53 13
-60 12 -70 57 -222 86 -294 5 -11 19 -47 31 -80 13 -33 30 -68 38 -77 8 -10
11 -18 8 -18 -6 0 38 -87 96 -190 42 -74 151 -234 201 -295 23 -27 48 -58 56
-69 29 -37 266 -273 313 -312 27 -21 54 -43 60 -49 7 -5 39 -30 72 -55 33 -25
62 -48 63 -52 2 -5 7 -8 12 -8 4 0 49 -27 98 -60 50 -33 96 -60 101 -60 6 0
11 -3 11 -7 0 -5 10 -13 23 -19 12 -6 72 -35 132 -66 196 -98 396 -180 525
-214 159 -42 287 -74 312 -78 18 -3 60 -10 93 -16 33 -6 78 -13 100 -16 22 -3
49 -7 60 -9 159 -32 732 -25 915 11 14 3 32 6 40 6 30 1 247 47 344 73 765
204 1412 677 1773 1295 48 84 133 253 133 268 0 4 7 19 14 34 15 29 75 202 81
234 2 10 4 19 5 19 1 0 3 7 5 15 24 96 34 141 39 175 4 23 8 50 10 62 21 105
29 476 13 578 -4 28 -10 68 -13 90 -4 31 -19 115 -29 155 -1 3 -5 21 -9 40 -4
19 -17 67 -29 105 -12 39 -22 72 -22 75 0 3 -11 32 -23 65 -73 197 -188 408
-317 585 -66 90 -165 207 -242 285 -113 115 -349 315 -372 315 -6 0 -11 3 -11
8 0 11 -90 65 -97 58 -4 -3 -1 -16 5 -29 10 -19 27 -79 37 -127 2 -8 8 -35 14
-60 5 -25 13 -67 17 -95 3 -27 8 -53 11 -57 16 -27 24 -371 11 -490 -8 -72
-49 -261 -55 -254 -2 2 -6 16 -9 32 -5 26 -18 84 -29 124 -29 113 -123 299
-199 393 -134 170 -321 283 -496 302 -131 14 -220 37 -328 86 -35 16 -65 29
-68 29 -3 0 -25 14 -49 30 -24 17 -48 30 -53 30 -6 0 -12 3 -14 8 -1 4 -25 25
-53 47 -59 47 -120 108 -155 154 -14 17 -34 43 -46 57 -26 32 -94 163 -122
234 -49 126 -66 232 -66 390 0 149 12 230 51 360 21 73 96 245 112 260 3 3 23
31 44 62 37 55 121 146 182 198 42 36 141 100 154 100 6 0 11 4 11 8 0 5 12
13 28 19 47 20 -102 13 -188 -9z m-453 -1957 c38 -20 56 -76 48 -150 -4 -36
-9 -75 -11 -85 -4 -24 -16 -112 -19 -146 -1 -14 -5 -43 -8 -65 -7 -42 -16
-110 -23 -160 -11 -96 -16 -133 -19 -155 -2 -14 -6 -45 -10 -70 -7 -54 -15
-115 -20 -150 -3 -14 -7 -50 -11 -80 -9 -80 -11 -102 -17 -135 -3 -16 -8 -55
-12 -86 -3 -31 -7 -66 -10 -77 -2 -12 -6 -47 -10 -79 -6 -62 -13 -110 -20
-158 -3 -16 -7 -52 -10 -80 -3 -27 -8 -61 -10 -75 -8 -48 -16 -108 -20 -151
-3 -24 -8 -60 -10 -79 -3 -19 -9 -71 -15 -115 -6 -44 -12 -87 -13 -95 -2 -13
22 -15 149 -18 117 -2 151 0 151 10 0 7 3 36 7 63 4 28 8 64 10 80 2 17 7 50
11 75 3 25 8 56 10 70 2 14 6 50 10 80 4 30 9 69 12 85 3 17 6 46 8 65 2 31
13 107 21 152 1 9 6 48 9 85 4 37 9 71 11 75 2 3 6 31 9 62 2 30 7 67 9 83 5
27 11 70 21 143 2 19 7 52 10 72 6 43 28 73 70 95 42 22 85 18 142 -13 201
-112 723 -421 742 -439 18 -18 25 -37 29 -79 4 -50 2 -59 -28 -95 -33 -43 -75
-61 -122 -54 -27 4 -170 81 -176 95 -2 5 -8 8 -13 8 -5 0 -54 27 -110 60 -55
33 -102 60 -104 60 -2 0 -33 18 -70 41 -94 57 -137 80 -140 77 -3 -3 -9 -44
-21 -138 -13 -97 -31 -79 220 -226 126 -74 233 -134 238 -134 4 0 8 -5 8 -10
0 -6 3 -9 8 -8 4 1 18 -5 32 -14 14 -8 57 -34 97 -57 39 -23 81 -55 93 -72 42
-58 20 -152 -44 -194 -54 -36 -86 -29 -228 53 -21 12 -53 31 -72 41 -18 11
-64 38 -101 60 -37 23 -69 41 -71 41 -2 0 -33 18 -69 40 -36 22 -68 40 -70 40
-3 0 -23 12 -45 26 -22 15 -42 25 -45 22 -2 -2 -7 -29 -10 -59 -3 -30 -10 -81
-16 -114 -5 -33 -12 -76 -13 -95 -2 -19 -7 -65 -11 -101 l-7 -67 973 0 c536
-1 979 -1 984 -1 7 -1 11 -32 11 -80 l1 -78 -994 3 c-798 4 -993 2 -994 -8 0
-7 -2 -22 -4 -33 -4 -21 -11 -72 -21 -152 -3 -27 -8 -61 -11 -78 -3 -16 -7
-46 -8 -65 -4 -32 -7 -55 -21 -155 -9 -70 -15 -113 -19 -155 -3 -25 -7 -55
-10 -67 -5 -20 -1 -23 27 -23 18 -1 396 -1 841 -1 l807 0 1 -34 c0 -19 1 -53
1 -75 1 -22 -2 -43 -5 -46 -3 -3 -390 -6 -860 -6 l-855 -1 -21 -38 c-48 -84
-170 -162 -321 -205 -105 -30 -170 -37 -330 -38 -152 0 -210 6 -310 35 -25 7
-47 13 -50 13 -3 1 -32 14 -65 30 -72 36 -158 118 -174 168 l-12 36 -517 0
-517 -1 -3 81 -3 80 528 1 528 0 15 23 c55 86 212 187 333 214 4 1 8 2 10 4 3
3 71 14 162 27 114 16 365 2 435 -25 14 -5 27 -9 30 -9 3 0 22 -5 43 -12 21
-7 41 -11 44 -8 3 3 7 21 8 40 3 31 19 149 31 232 5 40 13 100 19 155 3 25 8
57 11 73 l6 27 -155 0 -154 0 -36 -45 c-114 -148 -335 -228 -627 -228 -138 0
-171 3 -272 23 -57 11 -185 59 -210 79 -63 50 -99 88 -119 126 l-24 45 -464 2
-465 3 -1 65 c-1 36 1 71 3 78 3 9 107 12 473 12 l468 0 16 28 c31 56 109 124
190 165 51 25 171 66 215 72 97 15 170 20 270 19 154 -1 224 -11 323 -45 32
-12 61 -19 63 -16 3 3 7 18 9 34 3 15 11 78 20 138 9 61 18 130 20 155 3 25 7
59 9 75 13 100 17 132 27 197 5 40 12 93 14 118 3 25 7 54 10 65 2 11 7 49 10
85 4 36 9 73 12 84 3 10 7 35 8 55 2 20 6 54 9 76 3 22 8 64 12 93 3 29 7 61
8 70 6 31 15 96 22 151 3 30 7 62 9 72 2 10 7 49 10 86 4 37 9 70 10 73 2 3 6
34 10 70 4 36 9 74 12 85 2 11 6 40 7 64 10 123 109 193 203 142z"/>
</g>
</svg>
